<svg width="120" height="92" viewBox="0 0 120 92" fill="none" xmlns="http://www.w3.org/2000/svg">
<path d="M120 29.9578C120 13.5303 100.934 0.164795 77.4982 0.164795C54.6122 0.164795 35.9416 12.9208 35.0765 28.8165C14.9007 32.5199 0.000141571 44.9641 0.000141571 59.7507C0.000141571 67.4005 3.94038 74.6471 11.1606 80.427L0.960181 87.7378C0.120147 88.3384 -0.209867 89.3649 0.135147 90.2909C0.485083 91.2167 1.43528 91.8355 2.50032 91.8355H47.5022C73.6932 91.8355 95.0042 77.4432 95.0091 59.7509C95.0091 58.8479 94.9191 57.9588 94.8141 57.0696C110.144 52.2842 120 41.8565 120 29.9578ZM93.7739 52.5592C93.154 50.7211 92.3338 48.9153 91.2339 47.1644C90.5488 46.0689 89.0187 45.6931 87.8187 46.3257C86.6186 46.9582 86.2087 48.3607 86.9036 49.4563C88.9587 52.7289 90.0038 56.194 90.0038 59.7509C90.0038 74.9178 70.938 87.2521 47.5022 87.2521H9.75546L16.7258 82.2561C17.3409 81.8161 17.6959 81.1423 17.6859 80.4273C17.6758 79.7077 17.3059 79.0385 16.6808 78.6122C9.15052 73.4602 5.00542 66.7592 5.00542 59.7464C5.00542 44.5795 24.0712 32.2453 47.5071 32.2453C49.1621 32.2453 50.7971 32.3095 52.4022 32.4286C53.7623 32.5248 54.9872 31.5898 55.0922 30.3292C55.2022 29.0642 54.1772 27.9596 52.8021 27.8586C51.0571 27.7349 49.2919 27.6661 47.5019 27.6661C44.9919 27.6661 42.5468 27.8357 40.1416 28.0924C41.5718 15.0614 57.7574 4.74846 77.5032 4.74846C98.1841 4.74846 115.005 16.0559 115.005 29.9578C115.005 39.7024 106.719 48.3423 93.7739 52.5592Z" fill="white"/>
</svg>
