<svg width="40" height="40" viewBox="0 0 40 40" fill="none" xmlns="http://www.w3.org/2000/svg">
<path fill-rule="evenodd" clip-rule="evenodd" d="M22.1856 4.68276C21.5875 4.13923 20.8082 3.83808 20 3.83808C19.1918 3.83808 18.4125 4.13923 17.8144 4.68276L4.81438 16.5014C4.47918 16.806 4.21134 17.1772 4.02805 17.5914C3.84475 18.0056 3.75004 18.4535 3.75 18.9064V33C3.75 33.862 4.09241 34.6886 4.7019 35.2981C5.3114 35.9076 6.13805 36.25 7 36.25H13.5V26.5C13.5 24.7761 14.1848 23.1228 15.4038 21.9038C16.6228 20.6848 18.2761 20 20 20C21.7239 20 23.3772 20.6848 24.5962 21.9038C25.8152 23.1228 26.5 24.7761 26.5 26.5V36.25H33C33.862 36.25 34.6886 35.9076 35.2981 35.2981C35.9076 34.6886 36.25 33.862 36.25 33V18.9064C36.25 18.4535 36.1552 18.0056 35.972 17.5914C35.7887 17.1772 35.5208 16.806 35.1856 16.5014L22.1856 4.68276ZM15.6271 2.27776C16.8237 1.18978 18.3828 0.586914 20 0.586914C21.6172 0.586914 23.1763 1.18978 24.3729 2.27776L37.3729 14.0964C38.043 14.7057 38.5783 15.4483 38.9447 16.2766C39.311 17.105 39.5001 18.0007 39.5 18.9064V33C39.5 34.7239 38.8152 36.3772 37.5962 37.5962C36.3772 38.8152 34.7239 39.5 33 39.5H26.5C25.638 39.5 24.8114 39.1576 24.2019 38.5481C23.5924 37.9386 23.25 37.112 23.25 36.25V26.5C23.25 25.6381 22.9076 24.8114 22.2981 24.2019C21.6886 23.5924 20.862 23.25 20 23.25C19.138 23.25 18.3114 23.5924 17.7019 24.2019C17.0924 24.8114 16.75 25.6381 16.75 26.5V36.25C16.75 37.112 16.4076 37.9386 15.7981 38.5481C15.1886 39.1576 14.362 39.5 13.5 39.5H7C5.27609 39.5 3.62279 38.8152 2.40381 37.5962C1.18482 36.3772 0.5 34.7239 0.5 33V18.9064C0.500088 18.0006 0.689502 17.1048 1.05609 16.2764C1.42268 15.4481 1.95835 14.7055 2.62875 14.0964L15.6288 2.27938L15.6271 2.27776Z" fill="#FFF8F8"/>
</svg>
