<svg width="349" height="492" viewBox="0 0 349 492" fill="none" xmlns="http://www.w3.org/2000/svg">
<g filter="url(#filter0_d_1_13)">
<path d="M7 49C7 25.2518 26.2518 6 50 6H340V482H50C26.2518 482 7 462.748 7 439V49Z" fill="#1F42E3"/>
</g>
<path d="M122 127.5C132.058 238.468 121.861 318.188 103.038 374.124C79.8613 442.996 25.9424 407.667 43.1477 337.067V337.067C66.4019 241.644 199.619 235.122 232.083 327.816L274 447.5" stroke="#536EE9" stroke-width="4"/>
<path d="M338 6V63C338 243.597 191.597 390 11 390V390" stroke="white" stroke-opacity="0.23" stroke-width="4"/>
<path d="M343 106V390H10" stroke="white" stroke-opacity="0.23" stroke-width="4"/>
<path d="M233.488 238.2C235.376 238.2 237.056 238.536 238.528 239.208C240 239.848 241.232 240.728 242.224 241.848C243.248 242.936 244.016 244.2 244.528 245.64C245.072 247.08 245.344 248.568 245.344 250.104C245.344 251.576 245.104 253 244.624 254.376C244.144 255.752 243.408 256.968 242.416 258.024C241.424 259.08 240.192 259.928 238.72 260.568C237.248 261.208 235.536 261.528 233.584 261.528C231.568 261.528 229.808 261.192 228.304 260.52C226.8 259.848 225.552 258.968 224.56 257.88C223.6 256.792 222.88 255.56 222.4 254.184C221.92 252.776 221.68 251.336 221.68 249.864C221.68 248.296 221.952 246.808 222.496 245.4C223.04 243.992 223.808 242.76 224.8 241.704C225.824 240.616 227.056 239.768 228.496 239.16C229.968 238.52 231.632 238.2 233.488 238.2ZM233.536 258.216C234.528 258.216 235.392 257.992 236.128 257.544C236.896 257.064 237.536 256.456 238.048 255.72C238.56 254.952 238.928 254.088 239.152 253.128C239.408 252.136 239.536 251.128 239.536 250.104C239.536 249.112 239.392 248.12 239.104 247.128C238.848 246.104 238.448 245.192 237.904 244.392C237.392 243.592 236.752 242.936 235.984 242.424C235.216 241.912 234.336 241.656 233.344 241.656C232.32 241.656 231.424 241.896 230.656 242.376C229.92 242.856 229.312 243.48 228.832 244.248C228.352 245.016 227.984 245.88 227.728 246.84C227.504 247.8 227.392 248.776 227.392 249.768C227.392 250.792 227.52 251.8 227.776 252.792C228.064 253.784 228.464 254.696 228.976 255.528C229.52 256.328 230.176 256.984 230.944 257.496C231.712 257.976 232.576 258.216 233.536 258.216Z" fill="white"/>
<path d="M207.488 237.2C209.376 237.2 211.056 237.536 212.528 238.208C214 238.848 215.232 239.728 216.224 240.848C217.248 241.936 218.016 243.2 218.528 244.64C219.072 246.08 219.344 247.568 219.344 249.104C219.344 250.576 219.104 252 218.624 253.376C218.144 254.752 217.408 255.968 216.416 257.024C215.424 258.08 214.192 258.928 212.72 259.568C211.248 260.208 209.536 260.528 207.584 260.528C205.568 260.528 203.808 260.192 202.304 259.52C200.8 258.848 199.552 257.968 198.56 256.88C197.6 255.792 196.88 254.56 196.4 253.184C195.92 251.776 195.68 250.336 195.68 248.864C195.68 247.296 195.952 245.808 196.496 244.4C197.04 242.992 197.808 241.76 198.8 240.704C199.824 239.616 201.056 238.768 202.496 238.16C203.968 237.52 205.632 237.2 207.488 237.2ZM207.536 257.216C208.528 257.216 209.392 256.992 210.128 256.544C210.896 256.064 211.536 255.456 212.048 254.72C212.56 253.952 212.928 253.088 213.152 252.128C213.408 251.136 213.536 250.128 213.536 249.104C213.536 248.112 213.392 247.12 213.104 246.128C212.848 245.104 212.448 244.192 211.904 243.392C211.392 242.592 210.752 241.936 209.984 241.424C209.216 240.912 208.336 240.656 207.344 240.656C206.32 240.656 205.424 240.896 204.656 241.376C203.92 241.856 203.312 242.48 202.832 243.248C202.352 244.016 201.984 244.88 201.728 245.84C201.504 246.8 201.392 247.776 201.392 248.768C201.392 249.792 201.52 250.8 201.776 251.792C202.064 252.784 202.464 253.696 202.976 254.528C203.52 255.328 204.176 255.984 204.944 256.496C205.712 256.976 206.576 257.216 207.536 257.216Z" fill="white"/>
<path d="M263.824 261.184C263.824 260.96 263.872 260.544 263.968 259.936C264.096 259.296 264.192 258.736 264.256 258.256L264.208 258.064C263.376 259.536 262.224 260.656 260.752 261.424C259.28 262.16 257.744 262.528 256.144 262.528C254.384 262.528 252.848 262.208 251.536 261.568C250.256 260.928 249.184 260.08 248.32 259.024C247.456 257.968 246.816 256.752 246.4 255.376C245.984 254 245.776 252.576 245.776 251.104C245.776 248.96 246.112 247.136 246.784 245.632C247.488 244.096 248.368 242.864 249.424 241.936C250.48 240.976 251.632 240.288 252.88 239.872C254.16 239.424 255.392 239.2 256.576 239.2C258.016 239.2 259.44 239.536 260.848 240.208C262.256 240.88 263.408 241.984 264.304 243.52L264.4 243.328C264.336 242.4 264.304 241.456 264.304 240.496C264.304 239.504 264.304 238.544 264.304 237.616C264.304 236.624 264.304 235.808 264.304 235.168C264.304 234.496 264.288 233.936 264.256 233.488C264.256 233.04 264.24 232.64 264.208 232.288C264.208 231.936 264.192 231.568 264.16 231.184C264.128 230.864 264.016 230.56 263.824 230.272C263.632 229.984 263.488 229.792 263.392 229.696C262.944 229.344 262.496 229.12 262.048 229.024C261.632 228.928 261.136 228.88 260.56 228.88L260.368 228.688V227.104L260.56 226.912H263.296C264.032 226.912 264.8 226.912 265.6 226.912C266.432 226.88 267.168 226.816 267.808 226.72L269.488 226.48L269.776 227.392C269.712 227.52 269.648 227.76 269.584 228.112C269.552 228.432 269.52 228.784 269.488 229.168C269.488 229.552 269.472 229.92 269.44 230.272C269.44 230.624 269.44 230.896 269.44 231.088C269.44 231.568 269.424 232.032 269.392 232.48C269.392 232.896 269.392 233.392 269.392 233.968C269.392 234.512 269.376 235.2 269.344 236.032C269.344 236.832 269.344 237.872 269.344 239.152V249.616C269.344 250.96 269.344 252.048 269.344 252.88C269.376 253.68 269.392 254.352 269.392 254.896C269.424 255.44 269.44 255.92 269.44 256.336C269.472 256.72 269.504 257.2 269.536 257.776C269.6 258.352 269.68 258.768 269.776 259.024C269.904 259.28 270.08 259.488 270.304 259.648C270.56 259.904 270.912 260.064 271.36 260.128C271.808 260.16 272.224 260.176 272.608 260.176L272.8 260.368L272.896 262L272.8 262.192C272.256 262.128 271.664 262.08 271.024 262.048C270.384 262.016 269.776 262 269.2 262C268.336 262 267.472 262 266.608 262C265.744 262.032 264.928 262.08 264.16 262.144L263.824 261.184ZM251.344 251.056C251.344 252.016 251.456 252.96 251.68 253.888C251.936 254.784 252.304 255.6 252.784 256.336C253.264 257.04 253.872 257.616 254.608 258.064C255.376 258.48 256.272 258.688 257.296 258.688C258.384 258.688 259.344 258.512 260.176 258.16C261.04 257.776 261.76 257.328 262.336 256.816C262.944 256.272 263.408 255.712 263.728 255.136C264.08 254.56 264.272 254.064 264.304 253.648V248.32C264.24 247.904 264.048 247.408 263.728 246.832C263.44 246.224 263.008 245.648 262.432 245.104C261.888 244.56 261.2 244.096 260.368 243.712C259.536 243.296 258.544 243.088 257.392 243.088C256.336 243.088 255.424 243.328 254.656 243.808C253.888 244.256 253.248 244.848 252.736 245.584C252.256 246.32 251.904 247.168 251.68 248.128C251.456 249.088 251.344 250.064 251.344 251.056Z" fill="white"/>
<path d="M199.208 260.288C198.984 260.288 198.616 260.272 198.104 260.24C197.592 260.208 197.064 260.176 196.52 260.144C195.976 260.112 195.448 260.08 194.936 260.048C194.424 260.016 194.056 260 193.832 260H191C190.776 260 190.408 260.016 189.896 260.048C189.384 260.08 188.856 260.112 188.312 260.144C187.768 260.176 187.24 260.208 186.728 260.24C186.216 260.272 185.848 260.288 185.624 260.288L185.48 260.096L185.624 258.272L185.816 258.08H186.344C187.272 258.08 187.992 257.936 188.504 257.648C189.048 257.328 189.32 256.704 189.32 255.776L188.264 240.08C188.2 239.344 188.152 238.704 188.12 238.16C188.12 237.616 188.056 237.024 187.928 236.384C187.736 236.96 187.432 237.776 187.016 238.832C186.6 239.888 186.12 241.104 185.576 242.48C185.064 243.824 184.504 245.264 183.896 246.8C183.288 248.336 182.68 249.872 182.072 251.408C181.464 252.912 180.888 254.368 180.344 255.776C179.832 257.152 179.384 258.352 179 259.376H175.064L166.664 236.528C166.664 237.296 166.632 237.936 166.568 238.448C166.504 238.928 166.44 239.552 166.376 240.32L165.8 248.192C165.736 249.248 165.672 250.128 165.608 250.832C165.576 251.504 165.544 252.08 165.512 252.56C165.512 253.04 165.512 253.456 165.512 253.808C165.512 254.16 165.512 254.512 165.512 254.864C165.512 255.792 165.608 256.432 165.8 256.784C166.024 257.136 166.264 257.408 166.52 257.6C166.776 257.856 167.064 258 167.384 258.032C167.736 258.064 168.168 258.08 168.68 258.08L168.872 258.272L169.016 260.096L168.92 260.288C168.696 260.288 168.36 260.272 167.912 260.24C167.496 260.208 167.064 260.176 166.616 260.144C166.168 260.112 165.72 260.08 165.272 260.048C164.856 260.016 164.536 260 164.312 260H161.48C161.256 260 160.888 260.016 160.376 260.048C159.896 260.08 159.368 260.112 158.792 260.144C158.248 260.176 157.72 260.208 157.208 260.24C156.728 260.272 156.376 260.288 156.152 260.288L156.056 260.096L156.2 258.272L156.488 258.08C156.968 258.08 157.432 258.064 157.88 258.032C158.328 257.968 158.712 257.824 159.032 257.6C159.288 257.376 159.544 257.088 159.8 256.736C160.056 256.384 160.264 255.76 160.424 254.864C160.488 254.48 160.568 253.952 160.664 253.28C160.76 252.608 160.872 251.472 161 249.872L161.672 241.088C161.768 239.968 161.832 239.024 161.864 238.256C161.928 237.488 161.96 236.832 161.96 236.288C161.992 235.744 162.008 235.28 162.008 234.896C162.04 234.512 162.056 234.128 162.056 233.744C162.056 232.816 161.912 232.176 161.624 231.824C161.368 231.472 161.112 231.2 160.856 231.008C160.568 230.752 160.2 230.608 159.752 230.576C159.304 230.544 158.824 230.528 158.312 230.528L158.072 230.336L157.928 228.512L158.024 228.32C158.248 228.32 158.616 228.336 159.128 228.368C159.64 228.4 160.168 228.432 160.712 228.464C161.256 228.496 161.784 228.528 162.296 228.56C162.808 228.592 163.176 228.608 163.4 228.608H167.096C167.32 228.608 167.608 228.592 167.96 228.56C168.344 228.528 168.696 228.48 169.016 228.416L169.256 228.56C169.288 229.008 169.4 229.632 169.592 230.432C169.816 231.232 170.072 232.112 170.36 233.072C170.68 234.032 171.032 235.056 171.416 236.144C171.8 237.2 172.184 238.24 172.568 239.264L175.592 247.04C175.944 247.904 176.296 248.816 176.648 249.776C177 250.736 177.32 251.648 177.608 252.512C177.704 252.384 177.96 251.824 178.376 250.832C178.792 249.84 179.288 248.608 179.864 247.136C180.44 245.664 181.048 244.048 181.688 242.288C182.36 240.496 182.984 238.736 183.56 237.008C184.168 235.28 184.68 233.68 185.096 232.208C185.544 230.704 185.832 229.504 185.96 228.608L186.2 228.416C186.456 228.48 186.728 228.528 187.016 228.56C187.304 228.592 187.576 228.608 187.832 228.608H191.96C192.184 228.608 192.552 228.592 193.064 228.56C193.576 228.528 194.104 228.496 194.648 228.464C195.192 228.432 195.72 228.4 196.232 228.368C196.744 228.336 197.112 228.32 197.336 228.32L197.432 228.512L197.288 230.336L197.048 230.528C196.568 230.528 196.088 230.56 195.608 230.624C195.16 230.656 194.792 230.784 194.504 231.008C194.248 231.2 193.976 231.488 193.688 231.872C193.432 232.256 193.304 232.88 193.304 233.744C193.304 234.192 193.304 234.608 193.304 234.992C193.304 235.376 193.32 235.824 193.352 236.336C193.384 236.848 193.416 237.472 193.448 238.208C193.512 238.944 193.592 239.888 193.688 241.04L194.264 247.952C194.36 249.104 194.44 250.048 194.504 250.784C194.568 251.488 194.616 252.08 194.648 252.56C194.712 253.04 194.76 253.456 194.792 253.808C194.824 254.128 194.872 254.48 194.936 254.864C195.064 255.792 195.256 256.432 195.512 256.784C195.768 257.136 196.024 257.408 196.28 257.6C196.568 257.856 196.936 258 197.384 258.032C197.864 258.064 198.36 258.08 198.872 258.08L199.112 258.272L199.256 260.096L199.208 260.288Z" fill="white"/>
<path d="M162.256 215.568C161.872 216.528 161.36 217.392 160.72 218.16C160.112 218.96 159.408 219.648 158.608 220.224C157.808 220.8 156.96 221.264 156.064 221.616C155.168 222 154.256 222.256 153.328 222.384C153.072 222.448 152.768 222.48 152.416 222.48C152.096 222.48 151.616 222.48 150.976 222.48L150.64 222.384L150.496 219.936L150.688 219.696H151.36C151.744 219.696 152.16 219.648 152.608 219.552C153.056 219.488 153.488 219.344 153.904 219.12C154.832 218.672 155.68 218.032 156.448 217.2C157.248 216.368 157.792 215.568 158.08 214.8L159.424 211.2L155.584 202.416C155.424 202.064 155.168 201.44 154.816 200.544C154.464 199.648 154.064 198.672 153.616 197.616C153.168 196.528 152.688 195.456 152.176 194.4C151.696 193.344 151.248 192.464 150.832 191.76C150.512 191.248 150.144 190.848 149.728 190.56C149.344 190.272 148.816 190.096 148.144 190.032L147.856 189.792V188.16L148.048 187.968C148.592 188.032 149.168 188.096 149.776 188.16C150.384 188.224 150.944 188.256 151.456 188.256H155.248C155.728 188.256 156.304 188.224 156.976 188.16C157.68 188.096 158.32 188.032 158.896 187.968L159.088 188.16V189.696L158.896 189.888C158.288 189.952 157.76 190.144 157.312 190.464C156.896 190.752 156.688 191.184 156.688 191.76C156.688 192.144 156.816 192.784 157.072 193.68C157.36 194.544 157.68 195.472 158.032 196.464C158.416 197.456 158.768 198.384 159.088 199.248C159.44 200.08 159.664 200.64 159.76 200.928L161.824 206.736L164.224 200.928C164.448 200.416 164.72 199.776 165.04 199.008C165.36 198.208 165.664 197.376 165.952 196.512C166.272 195.648 166.544 194.8 166.768 193.968C166.992 193.136 167.104 192.4 167.104 191.76C167.104 191.056 166.864 190.592 166.384 190.368C165.904 190.112 165.392 189.952 164.848 189.888L164.656 189.696V188.16L164.848 187.968C165.456 188.096 166.032 188.176 166.576 188.208C167.12 188.24 167.632 188.256 168.112 188.256H172C172.544 188.256 173.072 188.224 173.584 188.16C174.128 188.096 174.704 188.032 175.312 187.968L175.504 188.16V189.792L175.216 190.032C174.672 190.096 174.192 190.256 173.776 190.512C173.392 190.768 173.024 191.184 172.672 191.76C172.192 192.528 171.648 193.52 171.04 194.736C170.464 195.92 169.888 197.12 169.312 198.336C168.768 199.552 168.272 200.656 167.824 201.648C167.376 202.64 167.088 203.328 166.96 203.712L162.256 215.568Z" fill="#EFF1FF"/>
<path d="M135.272 198.096C136.008 196.688 137.016 195.52 138.296 194.592C139.576 193.664 141.08 193.2 142.808 193.2C143.8 193.2 144.776 193.328 145.736 193.584C146.696 193.84 147.56 194.24 148.328 194.784C149.128 195.328 149.784 196.032 150.296 196.896C150.84 197.728 151.192 198.72 151.352 199.872C151.448 200.704 151.496 201.584 151.496 202.512C151.528 203.44 151.544 204.368 151.544 205.296C151.576 206.384 151.592 207.392 151.592 208.32C151.592 209.216 151.592 210.208 151.592 211.296C151.592 212.032 151.672 212.592 151.832 212.976C152.024 213.328 152.248 213.568 152.504 213.696C152.856 213.888 153.224 214.016 153.608 214.08C154.024 214.144 154.488 214.176 155 214.176L155.144 214.368L155.24 216L155.144 216.192C154.472 216.128 153.72 216.08 152.888 216.048C152.088 216.016 151.304 216 150.536 216C149.768 216 149 216 148.232 216C147.464 216.032 146.744 216.08 146.072 216.144L145.736 215.184C145.832 214.768 145.912 214.144 145.976 213.312C146.072 212.48 146.136 211.808 146.168 211.296C146.232 210.08 146.28 208.944 146.312 207.888C146.344 206.832 146.36 205.888 146.36 205.056C146.36 204.32 146.344 203.52 146.312 202.656C146.28 201.792 146.168 201.04 145.976 200.4C145.72 199.376 145.192 198.624 144.392 198.144C143.624 197.632 142.728 197.376 141.704 197.376C140.744 197.376 139.864 197.552 139.064 197.904C138.264 198.256 137.576 198.688 137 199.2C136.456 199.68 136.024 200.192 135.704 200.736C135.384 201.28 135.224 201.76 135.224 202.176V207.12C135.224 207.76 135.224 208.288 135.224 208.704C135.224 209.088 135.224 209.424 135.224 209.712C135.256 210 135.272 210.272 135.272 210.528C135.304 210.752 135.336 211.008 135.368 211.296C135.432 211.968 135.56 212.48 135.752 212.832C135.976 213.152 136.216 213.424 136.472 213.648C136.728 213.904 137.032 214.064 137.384 214.128C137.736 214.16 138.152 214.176 138.632 214.176L138.872 214.416L138.968 216L138.872 216.192C138.648 216.192 138.312 216.176 137.864 216.144C137.416 216.112 136.936 216.08 136.424 216.048C135.912 216.048 135.432 216.032 134.984 216C134.536 216 134.2 216 133.976 216H131.336C131.112 216 130.76 216 130.28 216C129.832 216.032 129.352 216.048 128.84 216.048C128.36 216.08 127.88 216.112 127.4 216.144C126.952 216.176 126.616 216.192 126.392 216.192L126.344 216L126.44 214.368L126.584 214.176C127.096 214.176 127.544 214.16 127.928 214.128C128.344 214.064 128.68 213.904 128.936 213.648C129.16 213.424 129.368 213.136 129.56 212.784C129.752 212.432 129.88 211.936 129.944 211.296C129.976 211.072 129.992 210.848 129.992 210.624C130.024 210.4 130.04 210.16 130.04 209.904C130.072 209.648 130.088 209.344 130.088 208.992C130.088 208.64 130.088 208.208 130.088 207.696V202.752C130.088 202.144 130.088 201.632 130.088 201.216C130.088 200.8 130.072 200.432 130.04 200.112C130.04 199.792 130.024 199.504 129.992 199.248C129.992 198.992 129.976 198.72 129.944 198.432C129.88 198.112 129.784 197.808 129.656 197.52C129.528 197.232 129.416 197.04 129.32 196.944C129 196.528 128.6 196.288 128.12 196.224C127.64 196.16 127.144 196.128 126.632 196.128L126.44 195.936V194.304L126.632 194.16H129.08C129.816 194.16 130.6 194.16 131.432 194.16C132.296 194.128 133.048 194.064 133.688 193.968L135.368 193.728L135.656 194.64C135.4 194.992 135.24 195.488 135.176 196.128C135.144 196.736 135.128 197.36 135.128 198L135.272 198.096Z" fill="white"/>
<path d="M117.488 194.2C119.376 194.2 121.056 194.536 122.528 195.208C124 195.848 125.232 196.728 126.224 197.848C127.248 198.936 128.016 200.2 128.528 201.64C129.072 203.08 129.344 204.568 129.344 206.104C129.344 207.576 129.104 209 128.624 210.376C128.144 211.752 127.408 212.968 126.416 214.024C125.424 215.08 124.192 215.928 122.72 216.568C121.248 217.208 119.536 217.528 117.584 217.528C115.568 217.528 113.808 217.192 112.304 216.52C110.8 215.848 109.552 214.968 108.56 213.88C107.6 212.792 106.88 211.56 106.4 210.184C105.92 208.776 105.68 207.336 105.68 205.864C105.68 204.296 105.952 202.808 106.496 201.4C107.04 199.992 107.808 198.76 108.8 197.704C109.824 196.616 111.056 195.768 112.496 195.16C113.968 194.52 115.632 194.2 117.488 194.2ZM117.536 214.216C118.528 214.216 119.392 213.992 120.128 213.544C120.896 213.064 121.536 212.456 122.048 211.72C122.56 210.952 122.928 210.088 123.152 209.128C123.408 208.136 123.536 207.128 123.536 206.104C123.536 205.112 123.392 204.12 123.104 203.128C122.848 202.104 122.448 201.192 121.904 200.392C121.392 199.592 120.752 198.936 119.984 198.424C119.216 197.912 118.336 197.656 117.344 197.656C116.32 197.656 115.424 197.896 114.656 198.376C113.92 198.856 113.312 199.48 112.832 200.248C112.352 201.016 111.984 201.88 111.728 202.84C111.504 203.8 111.392 204.776 111.392 205.768C111.392 206.792 111.52 207.8 111.776 208.792C112.064 209.784 112.464 210.696 112.976 211.528C113.52 212.328 114.176 212.984 114.944 213.496C115.712 213.976 116.576 214.216 117.536 214.216Z" fill="white"/>
<path d="M88.272 199.096C89.008 197.688 90.016 196.52 91.296 195.592C92.576 194.664 94.08 194.2 95.808 194.2C96.8 194.2 97.776 194.328 98.736 194.584C99.696 194.84 100.56 195.24 101.328 195.784C102.128 196.328 102.784 197.032 103.296 197.896C103.84 198.728 104.192 199.72 104.352 200.872C104.448 201.704 104.496 202.584 104.496 203.512C104.528 204.44 104.544 205.368 104.544 206.296C104.576 207.384 104.592 208.392 104.592 209.32C104.592 210.216 104.592 211.208 104.592 212.296C104.592 213.032 104.672 213.592 104.832 213.976C105.024 214.328 105.248 214.568 105.504 214.696C105.856 214.888 106.224 215.016 106.608 215.08C107.024 215.144 107.488 215.176 108 215.176L108.144 215.368L108.24 217L108.144 217.192C107.472 217.128 106.72 217.08 105.888 217.048C105.088 217.016 104.304 217 103.536 217C102.768 217 102 217 101.232 217C100.464 217.032 99.744 217.08 99.072 217.144L98.736 216.184C98.832 215.768 98.912 215.144 98.976 214.312C99.072 213.48 99.136 212.808 99.168 212.296C99.232 211.08 99.28 209.944 99.312 208.888C99.344 207.832 99.36 206.888 99.36 206.056C99.36 205.32 99.344 204.52 99.312 203.656C99.28 202.792 99.168 202.04 98.976 201.4C98.72 200.376 98.192 199.624 97.392 199.144C96.624 198.632 95.728 198.376 94.704 198.376C93.744 198.376 92.864 198.552 92.064 198.904C91.264 199.256 90.576 199.688 90 200.2C89.456 200.68 89.024 201.192 88.704 201.736C88.384 202.28 88.224 202.76 88.224 203.176V208.12C88.224 208.76 88.224 209.288 88.224 209.704C88.224 210.088 88.224 210.424 88.224 210.712C88.256 211 88.272 211.272 88.272 211.528C88.304 211.752 88.336 212.008 88.368 212.296C88.432 212.968 88.56 213.48 88.752 213.832C88.976 214.152 89.216 214.424 89.472 214.648C89.728 214.904 90.032 215.064 90.384 215.128C90.736 215.16 91.152 215.176 91.632 215.176L91.872 215.416L91.968 217L91.872 217.192C91.648 217.192 91.312 217.176 90.864 217.144C90.416 217.112 89.936 217.08 89.424 217.048C88.912 217.048 88.432 217.032 87.984 217C87.536 217 87.2 217 86.976 217H84.336C84.112 217 83.76 217 83.28 217C82.832 217.032 82.352 217.048 81.84 217.048C81.36 217.08 80.88 217.112 80.4 217.144C79.952 217.176 79.616 217.192 79.392 217.192L79.344 217L79.44 215.368L79.584 215.176C80.096 215.176 80.544 215.16 80.928 215.128C81.344 215.064 81.68 214.904 81.936 214.648C82.16 214.424 82.368 214.136 82.56 213.784C82.752 213.432 82.88 212.936 82.944 212.296C82.976 212.072 82.992 211.848 82.992 211.624C83.024 211.4 83.04 211.16 83.04 210.904C83.072 210.648 83.088 210.344 83.088 209.992C83.088 209.64 83.088 209.208 83.088 208.696V203.752C83.088 203.144 83.088 202.632 83.088 202.216C83.088 201.8 83.072 201.432 83.04 201.112C83.04 200.792 83.024 200.504 82.992 200.248C82.992 199.992 82.976 199.72 82.944 199.432C82.88 199.112 82.784 198.808 82.656 198.52C82.528 198.232 82.416 198.04 82.32 197.944C82 197.528 81.6 197.288 81.12 197.224C80.64 197.16 80.144 197.128 79.632 197.128L79.44 196.936V195.304L79.632 195.16H82.08C82.816 195.16 83.6 195.16 84.432 195.16C85.296 195.128 86.048 195.064 86.688 194.968L88.368 194.728L88.656 195.64C88.4 195.992 88.24 196.488 88.176 197.128C88.144 197.736 88.128 198.36 88.128 199L88.272 199.096Z" fill="white"/>
<path d="M65.23 184.425L74.69 209.395C75.02 210.312 75.3133 211.082 75.57 211.705C75.8267 212.328 76.0283 212.86 76.175 213.3C76.3583 213.74 76.505 214.107 76.615 214.4C76.7617 214.657 76.89 214.895 77 215.115C77.44 216.032 77.88 216.747 78.32 217.26C78.7967 217.737 79.255 218.103 79.695 218.36C80.1717 218.58 80.6483 218.708 81.125 218.745C81.6017 218.782 82.0783 218.8 82.555 218.8L82.83 219.02L82.995 221.11L82.885 221.33C82.6283 221.33 82.2433 221.312 81.73 221.275C81.2167 221.238 80.685 221.202 80.135 221.165C79.585 221.128 79.0533 221.092 78.54 221.055C78.0633 221.018 77.6967 221 77.44 221H73.425C73.1683 221 72.7467 221.018 72.16 221.055C71.5733 221.092 70.95 221.128 70.29 221.165C69.6667 221.202 69.0617 221.238 68.475 221.275C67.8883 221.312 67.4667 221.33 67.21 221.33L67.1 221.11L67.265 219.02L67.485 218.8C68.4383 218.8 69.1533 218.69 69.63 218.47C70.1433 218.213 70.4 217.553 70.4 216.49C70.4 215.903 70.29 215.078 70.07 214.015C69.8867 212.915 69.4283 211.558 68.695 209.945L67.54 207.305H57.915L56.815 209.945C56.155 211.558 55.66 212.933 55.33 214.07C55 215.207 54.835 216.013 54.835 216.49C54.835 217.37 55.0183 217.975 55.385 218.305C55.7517 218.635 56.4117 218.8 57.365 218.8L57.64 219.02L57.805 221.11L57.695 221.33C57.4383 221.33 57.035 221.312 56.485 221.275C55.935 221.238 55.3483 221.202 54.725 221.165C54.1383 221.128 53.57 221.092 53.02 221.055C52.47 221.018 52.0667 221 51.81 221H48.565C48.3083 221 47.9233 221.018 47.41 221.055C46.8967 221.092 46.365 221.128 45.815 221.165C45.265 221.202 44.7333 221.238 44.22 221.275C43.7433 221.312 43.3767 221.33 43.12 221.33L43.065 221.11L43.175 219.02L43.45 218.8C43.9267 218.8 44.4033 218.763 44.88 218.69C45.3567 218.617 45.8333 218.452 46.31 218.195C46.7867 217.938 47.245 217.59 47.685 217.15C48.1617 216.673 48.6383 216.068 49.115 215.335C49.225 215.115 49.39 214.785 49.61 214.345C49.83 213.868 50.1783 213.043 50.655 211.87C51.1317 210.697 51.7917 209.028 52.635 206.865C53.4783 204.702 54.5967 201.823 55.99 198.23L60.72 186.075L64.625 184.425H65.23ZM58.85 203.29H66.055L62.535 193.555L58.85 203.29Z" fill="white"/>
<defs>
<filter id="filter0_d_1_13" x="0.0999999" y="0.0999999" width="348.8" height="491.8" filterUnits="userSpaceOnUse" color-interpolation-filters="sRGB">
<feFlood flood-opacity="0" result="BackgroundImageFix"/>
<feColorMatrix in="SourceAlpha" type="matrix" values="0 0 0 0 0 0 0 0 0 0 0 0 0 0 0 0 0 0 127 0" result="hardAlpha"/>
<feMorphology radius="4" operator="dilate" in="SourceAlpha" result="effect1_dropShadow_1_13"/>
<feOffset dx="1" dy="2"/>
<feGaussianBlur stdDeviation="1.95"/>
<feComposite in2="hardAlpha" operator="out"/>
<feColorMatrix type="matrix" values="0 0 0 0 0 0 0 0 0 0 0 0 0 0 0 0 0 0 0.25 0"/>
<feBlend mode="normal" in2="BackgroundImageFix" result="effect1_dropShadow_1_13"/>
<feBlend mode="normal" in="SourceGraphic" in2="effect1_dropShadow_1_13" result="shape"/>
</filter>
</defs>
</svg>
